solid StepUpHousing_pushbutton
facet normal 0.0 0.0 -1.0
  outer loop
    vertex 7.0 10.0 -3.0
    vertex 0.0 0.0 -3.0
    vertex 0.0 10.0 -3.0
  endloop
endfacet
facet normal 0.0 0.0 -1.0
  outer loop
    vertex 0.0 0.0 -3.0
    vertex 7.0 10.0 -3.0
    vertex 7.0 0.0 -3.0
  endloop
endfacet
facet normal 0.0 0.0 1.0
  outer loop
    vertex 0.0 0.0 5.0
    vertex 0.4000000000000007 4.999999999999999 5.0
    vertex 0.0 10.0 5.0
  endloop
endfacet
facet normal 0.0 0.0 1.0
  outer loop
    vertex 0.4000000000000007 4.999999999999999 5.0
    vertex 0.0 0.0 5.0
    vertex 0.5056299385038894 4.197660960182184 5.0
  endloop
endfacet
facet normal 0.0 0.0 1.0
  outer loop
    vertex 0.5056299385038894 4.197660960182184 5.0
    vertex 0.0 0.0 5.0
    vertex 0.8153212482682414 3.4499999999999993 5.0
  endloop
endfacet
facet normal 0.0 0.0 1.0
  outer loop
    vertex 0.8153212482682414 3.4499999999999993 5.0
    vertex 0.0 0.0 5.0
    vertex 1.3079689783217034 2.807968978321703 5.0
  endloop
endfacet
facet normal 0.0 0.0 1.0
  outer loop
    vertex 1.3079689783217034 2.807968978321703 5.0
    vertex 0.0 0.0 5.0
    vertex 1.950000000000001 2.3153212482682406 5.0
  endloop
endfacet
facet normal 0.0 0.0 1.0
  outer loop
    vertex 1.950000000000001 2.3153212482682406 5.0
    vertex 0.0 0.0 5.0
    vertex 7.0 0.0 5.0
  endloop
endfacet
facet normal 0.0 0.0 1.0
  outer loop
    vertex 1.950000000000001 2.3153212482682406 5.0
    vertex 7.0 0.0 5.0
    vertex 2.697660960182186 2.005629938503889 5.0
  endloop
endfacet
facet normal 0.0 0.0 1.0
  outer loop
    vertex 2.697660960182186 2.005629938503889 5.0
    vertex 7.0 0.0 5.0
    vertex 3.5 1.9000000000000008 5.0
  endloop
endfacet
facet normal 0.0 0.0 1.0
  outer loop
    vertex 3.5 1.9000000000000008 5.0
    vertex 7.0 0.0 5.0
    vertex 4.302339039817815 2.0056299385038896 5.0
  endloop
endfacet
facet normal 0.0 0.0 1.0
  outer loop
    vertex 4.302339039817815 2.0056299385038896 5.0
    vertex 7.0 0.0 5.0
    vertex 5.05 2.315321248268241 5.0
  endloop
endfacet
facet normal 0.0 0.0 1.0
  outer loop
    vertex 5.05 2.315321248268241 5.0
    vertex 7.0 0.0 5.0
    vertex 5.692031021678297 2.807968978321703 5.0
  endloop
endfacet
facet normal 0.0 0.0 1.0
  outer loop
    vertex 5.692031021678297 2.807968978321703 5.0
    vertex 7.0 0.0 5.0
    vertex 6.184678751731759 3.4500000000000006 5.0
  endloop
endfacet
facet normal 0.0 0.0 1.0
  outer loop
    vertex 6.184678751731759 3.4500000000000006 5.0
    vertex 7.0 0.0 5.0
    vertex 6.49437006149611 4.197660960182186 5.0
  endloop
endfacet
facet normal 0.0 0.0 1.0
  outer loop
    vertex 6.49437006149611 4.197660960182186 5.0
    vertex 7.0 0.0 5.0
    vertex 6.599999999999999 5.0 5.0
  endloop
endfacet
facet normal 0.0 0.0 1.0
  outer loop
    vertex 0.0 10.0 5.0
    vertex 1.9499999999999988 7.6846787517317585 5.0
    vertex 7.0 10.0 5.0
  endloop
endfacet
facet normal 0.0 0.0 1.0
  outer loop
    vertex 1.9499999999999988 7.6846787517317585 5.0
    vertex 0.0 10.0 5.0
    vertex 1.307968978321702 7.192031021678296 5.0
  endloop
endfacet
facet normal 0.0 0.0 1.0
  outer loop
    vertex 1.307968978321702 7.192031021678296 5.0
    vertex 0.0 10.0 5.0
    vertex 0.8153212482682404 6.549999999999999 5.0
  endloop
endfacet
facet normal 0.0 0.0 1.0
  outer loop
    vertex 0.8153212482682404 6.549999999999999 5.0
    vertex 0.0 10.0 5.0
    vertex 0.5056299385038887 5.802339039817813 5.0
  endloop
endfacet
facet normal 0.0 0.0 1.0
  outer loop
    vertex 0.5056299385038887 5.802339039817813 5.0
    vertex 0.0 10.0 5.0
    vertex 0.4000000000000007 4.999999999999999 5.0
  endloop
endfacet
facet normal 0.0 0.0 1.0
  outer loop
    vertex 7.0 10.0 5.0
    vertex 1.9499999999999988 7.6846787517317585 5.0
    vertex 2.6976609601821835 7.99437006149611 5.0
  endloop
endfacet
facet normal 0.0 0.0 1.0
  outer loop
    vertex 7.0 10.0 5.0
    vertex 2.6976609601821835 7.99437006149611 5.0
    vertex 3.499999999999999 8.1 5.0
  endloop
endfacet
facet normal 0.0 0.0 1.0
  outer loop
    vertex 7.0 10.0 5.0
    vertex 3.499999999999999 8.1 5.0
    vertex 4.302339039817812 7.994370061496112 5.0
  endloop
endfacet
facet normal 0.0 0.0 1.0
  outer loop
    vertex 7.0 10.0 5.0
    vertex 4.302339039817812 7.994370061496112 5.0
    vertex 5.049999999999997 7.684678751731759 5.0
  endloop
endfacet
facet normal 0.0 0.0 1.0
  outer loop
    vertex 7.0 10.0 5.0
    vertex 5.049999999999997 7.684678751731759 5.0
    vertex 5.692031021678296 7.192031021678297 5.0
  endloop
endfacet
facet normal 0.0 0.0 1.0
  outer loop
    vertex 7.0 10.0 5.0
    vertex 5.692031021678296 7.192031021678297 5.0
    vertex 6.1846787517317585 6.550000000000001 5.0
  endloop
endfacet
facet normal 0.0 0.0 1.0
  outer loop
    vertex 7.0 10.0 5.0
    vertex 6.1846787517317585 6.550000000000001 5.0
    vertex 6.49437006149611 5.8023390398178165 5.0
  endloop
endfacet
facet normal 0.0 0.0 1.0
  outer loop
    vertex 7.0 10.0 5.0
    vertex 6.49437006149611 5.8023390398178165 5.0
    vertex 6.599999999999999 5.0 5.0
  endloop
endfacet
facet normal 0.0 0.0 1.0
  outer loop
    vertex 7.0 10.0 5.0
    vertex 6.599999999999999 5.0 5.0
    vertex 7.0 0.0 5.0
  endloop
endfacet
facet normal -1.0 0.0 0.0
  outer loop
    vertex 0.0 10.0 5.0
    vertex 0.0 0.0 -3.0
    vertex 0.0 0.0 5.0
  endloop
endfacet
facet normal -1.0 0.0 0.0
  outer loop
    vertex 0.0 0.0 -3.0
    vertex 0.0 10.0 5.0
    vertex 0.0 10.0 -3.0
  endloop
endfacet
facet normal -0.0 1.0 0.0
  outer loop
    vertex 0.0 10.0 5.0
    vertex 7.0 10.0 -3.0
    vertex 0.0 10.0 -3.0
  endloop
endfacet
facet normal -0.0 1.0 0.0
  outer loop
    vertex 7.0 10.0 -3.0
    vertex 0.0 10.0 5.0
    vertex 7.0 10.0 5.0
  endloop
endfacet
facet normal 1.0 0.0 0.0
  outer loop
    vertex 7.0 10.0 -3.0
    vertex 7.0 0.0 5.0
    vertex 7.0 0.0 -3.0
  endloop
endfacet
facet normal 1.0 0.0 0.0
  outer loop
    vertex 7.0 0.0 5.0
    vertex 7.0 10.0 -3.0
    vertex 7.0 10.0 5.0
  endloop
endfacet
facet normal -0.0 -1.0 -0.0
  outer loop
    vertex 7.0 0.0 5.0
    vertex 0.0 0.0 -3.0
    vertex 7.0 0.0 -3.0
  endloop
endfacet
facet normal -0.0 -1.0 -0.0
  outer loop
    vertex 0.0 0.0 -3.0
    vertex 7.0 0.0 5.0
    vertex 0.0 0.0 5.0
  endloop
endfacet
facet normal -3.165663332504627e-32 -2.7611955935749614e-30 1.0
  outer loop
    vertex 1.3079689783217034 2.807968978321703 12.0
    vertex 1.5681483474218623 4.482361909794957 12.0
    vertex 1.4999999999999987 4.999999999999998 12.0
  endloop
endfacet
facet normal -3.165663332504627e-32 -2.7611955935749614e-30 1.0
  outer loop
    vertex 1.5681483474218623 4.482361909794957 12.0
    vertex 1.3079689783217034 2.807968978321703 12.0
    vertex 1.950000000000001 2.3153212482682406 12.0
  endloop
endfacet
facet normal -3.165663332504627e-32 -2.7611955935749614e-30 1.0
  outer loop
    vertex 1.5681483474218623 4.482361909794957 12.0
    vertex 1.950000000000001 2.3153212482682406 12.0
    vertex 1.767949192431122 3.999999999999999 12.0
  endloop
endfacet
facet normal -3.165663332504627e-32 -2.7611955935749614e-30 1.0
  outer loop
    vertex 1.767949192431122 3.999999999999999 12.0
    vertex 1.950000000000001 2.3153212482682406 12.0
    vertex 2.0857864376269046 3.5857864376269037 12.0
  endloop
endfacet
facet normal -3.165663332504627e-32 -2.7611955935749614e-30 1.0
  outer loop
    vertex 2.0857864376269046 3.5857864376269037 12.0
    vertex 1.950000000000001 2.3153212482682406 12.0
    vertex 2.697660960182186 2.005629938503889 12.0
  endloop
endfacet
facet normal -3.165663332504627e-32 -2.7611955935749614e-30 1.0
  outer loop
    vertex 2.0857864376269046 3.5857864376269037 12.0
    vertex 2.697660960182186 2.005629938503889 12.0
    vertex 2.4999999999999996 3.267949192431121 12.0
  endloop
endfacet
facet normal -3.165663332504627e-32 -2.7611955935749614e-30 1.0
  outer loop
    vertex 2.4999999999999996 3.267949192431121 12.0
    vertex 2.697660960182186 2.005629938503889 12.0
    vertex 2.982361909794958 3.0681483474218623 12.0
  endloop
endfacet
facet normal -3.165663332504627e-32 -2.7611955935749614e-30 1.0
  outer loop
    vertex 2.982361909794958 3.0681483474218623 12.0
    vertex 2.697660960182186 2.005629938503889 12.0
    vertex 3.5 1.9000000000000008 12.0
  endloop
endfacet
facet normal -3.165663332504627e-32 -2.7611955935749614e-30 1.0
  outer loop
    vertex 2.982361909794958 3.0681483474218623 12.0
    vertex 3.5 1.9000000000000008 12.0
    vertex 3.5 2.9999999999999987 12.0
  endloop
endfacet
facet normal -3.165663332504627e-32 -2.7611955935749614e-30 1.0
  outer loop
    vertex 3.5 2.9999999999999987 12.0
    vertex 3.5 1.9000000000000008 12.0
    vertex 4.302339039817815 2.0056299385038896 12.0
  endloop
endfacet
facet normal -3.165663332504627e-32 -2.7611955935749614e-30 1.0
  outer loop
    vertex 3.5 2.9999999999999987 12.0
    vertex 4.302339039817815 2.0056299385038896 12.0
    vertex 4.0176380902050415 3.0681483474218627 12.0
  endloop
endfacet
facet normal -3.165663332504627e-32 -2.7611955935749614e-30 1.0
  outer loop
    vertex 4.0176380902050415 3.0681483474218627 12.0
    vertex 4.302339039817815 2.0056299385038896 12.0
    vertex 4.499999999999999 3.2679491924311215 12.0
  endloop
endfacet
facet normal -3.165663332504627e-32 -2.7611955935749614e-30 1.0
  outer loop
    vertex 4.499999999999999 3.2679491924311215 12.0
    vertex 4.302339039817815 2.0056299385038896 12.0
    vertex 5.05 2.315321248268241 12.0
  endloop
endfacet
facet normal -3.165663332504627e-32 -2.7611955935749614e-30 1.0
  outer loop
    vertex 4.499999999999999 3.2679491924311215 12.0
    vertex 5.05 2.315321248268241 12.0
    vertex 4.914213562373095 3.585786437626904 12.0
  endloop
endfacet
facet normal -3.165663332504627e-32 -2.7611955935749614e-30 1.0
  outer loop
    vertex 4.914213562373095 3.585786437626904 12.0
    vertex 5.05 2.315321248268241 12.0
    vertex 5.232050807568877 3.9999999999999996 12.0
  endloop
endfacet
facet normal -3.165663332504627e-32 -2.7611955935749614e-30 1.0
  outer loop
    vertex 5.232050807568877 3.9999999999999996 12.0
    vertex 5.05 2.315321248268241 12.0
    vertex 5.692031021678297 2.807968978321703 12.0
  endloop
endfacet
facet normal -3.165663332504627e-32 -2.7611955935749614e-30 1.0
  outer loop
    vertex 5.232050807568877 3.9999999999999996 12.0
    vertex 5.692031021678297 2.807968978321703 12.0
    vertex 5.431851652578136 4.482361909794958 12.0
  endloop
endfacet
facet normal -3.165663332504627e-32 -2.7611955935749614e-30 1.0
  outer loop
    vertex 5.431851652578136 4.482361909794958 12.0
    vertex 5.692031021678297 2.807968978321703 12.0
    vertex 5.5 5.000000000000002 12.0
  endloop
endfacet
facet normal -3.165663332504627e-32 -2.7611955935749614e-30 1.0
  outer loop
    vertex 5.5 5.000000000000002 12.0
    vertex 5.692031021678297 2.807968978321703 12.0
    vertex 5.692031021678296 7.192031021678297 12.0
  endloop
endfacet
facet normal -3.165663332504627e-32 -2.7611955935749614e-30 1.0
  outer loop
    vertex 5.692031021678296 7.192031021678297 12.0
    vertex 5.692031021678297 2.807968978321703 12.0
    vertex 6.1846787517317585 6.550000000000001 12.0
  endloop
endfacet
facet normal -3.165663332504627e-32 -2.7611955935749614e-30 1.0
  outer loop
    vertex 6.1846787517317585 6.550000000000001 12.0
    vertex 5.692031021678297 2.807968978321703 12.0
    vertex 6.184678751731759 3.4500000000000006 12.0
  endloop
endfacet
facet normal -3.165663332504627e-32 -2.7611955935749614e-30 1.0
  outer loop
    vertex 6.1846787517317585 6.550000000000001 12.0
    vertex 6.184678751731759 3.4500000000000006 12.0
    vertex 6.49437006149611 5.8023390398178165 12.0
  endloop
endfacet
facet normal -3.165663332504627e-32 -2.7611955935749614e-30 1.0
  outer loop
    vertex 6.49437006149611 5.8023390398178165 12.0
    vertex 6.184678751731759 3.4500000000000006 12.0
    vertex 6.49437006149611 4.197660960182186 12.0
  endloop
endfacet
facet normal -3.165663332504627e-32 -2.7611955935749614e-30 1.0
  outer loop
    vertex 6.49437006149611 5.8023390398178165 12.0
    vertex 6.49437006149611 4.197660960182186 12.0
    vertex 6.599999999999999 5.0 12.0
  endloop
endfacet
facet normal -3.165663332504627e-32 -2.7611955935749614e-30 1.0
  outer loop
    vertex 0.5056299385038894 4.197660960182184 12.0
    vertex 0.5056299385038887 5.802339039817813 12.0
    vertex 0.4000000000000007 4.999999999999999 12.0
  endloop
endfacet
facet normal -3.165663332504627e-32 -2.7611955935749614e-30 1.0
  outer loop
    vertex 0.5056299385038887 5.802339039817813 12.0
    vertex 0.5056299385038894 4.197660960182184 12.0
    vertex 0.8153212482682404 6.549999999999999 12.0
  endloop
endfacet
facet normal -3.165663332504627e-32 -2.7611955935749614e-30 1.0
  outer loop
    vertex 0.8153212482682404 6.549999999999999 12.0
    vertex 0.5056299385038894 4.197660960182184 12.0
    vertex 0.8153212482682414 3.4499999999999993 12.0
  endloop
endfacet
facet normal -3.165663332504627e-32 -2.7611955935749614e-30 1.0
  outer loop
    vertex 0.8153212482682404 6.549999999999999 12.0
    vertex 0.8153212482682414 3.4499999999999993 12.0
    vertex 1.307968978321702 7.192031021678296 12.0
  endloop
endfacet
facet normal -3.165663332504627e-32 -2.7611955935749614e-30 1.0
  outer loop
    vertex 1.307968978321702 7.192031021678296 12.0
    vertex 0.8153212482682414 3.4499999999999993 12.0
    vertex 1.3079689783217034 2.807968978321703 12.0
  endloop
endfacet
facet normal -3.165663332504627e-32 -2.7611955935749614e-30 1.0
  outer loop
    vertex 1.307968978321702 7.192031021678296 12.0
    vertex 1.3079689783217034 2.807968978321703 12.0
    vertex 1.4999999999999987 4.999999999999998 12.0
  endloop
endfacet
facet normal -3.165663332504627e-32 -2.7611955935749614e-30 1.0
  outer loop
    vertex 1.307968978321702 7.192031021678296 12.0
    vertex 1.4999999999999987 4.999999999999998 12.0
    vertex 1.5681483474218623 5.517638090205041 12.0
  endloop
endfacet
facet normal -3.165663332504627e-32 -2.7611955935749614e-30 1.0
  outer loop
    vertex 1.307968978321702 7.192031021678296 12.0
    vertex 1.5681483474218623 5.517638090205041 12.0
    vertex 1.9499999999999988 7.6846787517317585 12.0
  endloop
endfacet
facet normal -3.165663332504627e-32 -2.7611955935749614e-30 1.0
  outer loop
    vertex 1.9499999999999988 7.6846787517317585 12.0
    vertex 1.5681483474218623 5.517638090205041 12.0
    vertex 1.7679491924311208 5.999999999999999 12.0
  endloop
endfacet
facet normal -3.165663332504627e-32 -2.7611955935749614e-30 1.0
  outer loop
    vertex 1.9499999999999988 7.6846787517317585 12.0
    vertex 1.7679491924311208 5.999999999999999 12.0
    vertex 2.085786437626903 6.414213562373094 12.0
  endloop
endfacet
facet normal -3.165663332504627e-32 -2.7611955935749614e-30 1.0
  outer loop
    vertex 1.9499999999999988 7.6846787517317585 12.0
    vertex 2.085786437626903 6.414213562373094 12.0
    vertex 2.6976609601821835 7.99437006149611 12.0
  endloop
endfacet
facet normal -3.165663332504627e-32 -2.7611955935749614e-30 1.0
  outer loop
    vertex 2.6976609601821835 7.99437006149611 12.0
    vertex 2.085786437626903 6.414213562373094 12.0
    vertex 2.499999999999998 6.732050807568876 12.0
  endloop
endfacet
facet normal -3.165663332504627e-32 -2.7611955935749614e-30 1.0
  outer loop
    vertex 2.6976609601821835 7.99437006149611 12.0
    vertex 2.499999999999998 6.732050807568876 12.0
    vertex 2.9823619097949563 6.931851652578136 12.0
  endloop
endfacet
facet normal -3.165663332504627e-32 -2.7611955935749614e-30 1.0
  outer loop
    vertex 2.6976609601821835 7.99437006149611 12.0
    vertex 2.9823619097949563 6.931851652578136 12.0
    vertex 3.499999999999999 8.1 12.0
  endloop
endfacet
facet normal -3.165663332504627e-32 -2.7611955935749614e-30 1.0
  outer loop
    vertex 3.499999999999999 8.1 12.0
    vertex 2.9823619097949563 6.931851652578136 12.0
    vertex 3.499999999999997 7.0 12.0
  endloop
endfacet
facet normal -3.165663332504627e-32 -2.7611955935749614e-30 1.0
  outer loop
    vertex 3.499999999999999 8.1 12.0
    vertex 3.499999999999997 7.0 12.0
    vertex 4.017638090205041 6.931851652578136 12.0
  endloop
endfacet
facet normal -3.165663332504627e-32 -2.7611955935749614e-30 1.0
  outer loop
    vertex 3.499999999999999 8.1 12.0
    vertex 4.017638090205041 6.931851652578136 12.0
    vertex 4.302339039817812 7.994370061496112 12.0
  endloop
endfacet
facet normal -3.165663332504627e-32 -2.7611955935749614e-30 1.0
  outer loop
    vertex 4.302339039817812 7.994370061496112 12.0
    vertex 4.017638090205041 6.931851652578136 12.0
    vertex 4.499999999999999 6.732050807568878 12.0
  endloop
endfacet
facet normal -3.165663332504627e-32 -2.7611955935749614e-30 1.0
  outer loop
    vertex 4.302339039817812 7.994370061496112 12.0
    vertex 4.499999999999999 6.732050807568878 12.0
    vertex 5.049999999999997 7.684678751731759 12.0
  endloop
endfacet
facet normal -3.165663332504627e-32 -2.7611955935749614e-30 1.0
  outer loop
    vertex 5.049999999999997 7.684678751731759 12.0
    vertex 4.499999999999999 6.732050807568878 12.0
    vertex 4.914213562373093 6.414213562373097 12.0
  endloop
endfacet
facet normal -3.165663332504627e-32 -2.7611955935749614e-30 1.0
  outer loop
    vertex 5.049999999999997 7.684678751731759 12.0
    vertex 4.914213562373093 6.414213562373097 12.0
    vertex 5.232050807568876 6.0 12.0
  endloop
endfacet
facet normal -3.165663332504627e-32 -2.7611955935749614e-30 1.0
  outer loop
    vertex 5.049999999999997 7.684678751731759 12.0
    vertex 5.232050807568876 6.0 12.0
    vertex 5.692031021678296 7.192031021678297 12.0
  endloop
endfacet
facet normal -3.165663332504627e-32 -2.7611955935749614e-30 1.0
  outer loop
    vertex 5.692031021678296 7.192031021678297 12.0
    vertex 5.232050807568876 6.0 12.0
    vertex 5.431851652578136 5.517638090205042 12.0
  endloop
endfacet
facet normal -3.165663332504627e-32 -2.7611955935749614e-30 1.0
  outer loop
    vertex 5.692031021678296 7.192031021678297 12.0
    vertex 5.431851652578136 5.517638090205042 12.0
    vertex 5.5 5.000000000000002 12.0
  endloop
endfacet
facet normal -0.9914448613738106 0.13052619222005143 0.0
  outer loop
    vertex 0.5056299385038887 5.802339039817813 12.0
    vertex 0.4000000000000007 4.999999999999999 5.0
    vertex 0.4000000000000007 4.999999999999999 12.0
  endloop
endfacet
facet normal -0.9914448613738106 0.13052619222005143 0.0
  outer loop
    vertex 0.4000000000000007 4.999999999999999 5.0
    vertex 0.5056299385038887 5.802339039817813 12.0
    vertex 0.5056299385038887 5.802339039817813 5.0
  endloop
endfacet
facet normal -0.9914448613738104 -0.13052619222005205 -0.0
  outer loop
    vertex 0.4000000000000007 4.999999999999999 12.0
    vertex 0.5056299385038894 4.197660960182184 5.0
    vertex 0.5056299385038894 4.197660960182184 12.0
  endloop
endfacet
facet normal -0.9914448613738104 -0.13052619222005205 -0.0
  outer loop
    vertex 0.5056299385038894 4.197660960182184 5.0
    vertex 0.4000000000000007 4.999999999999999 12.0
    vertex 0.4000000000000007 4.999999999999999 5.0
  endloop
endfacet
facet normal -0.9238795325112868 -0.3826834323650901 -0.0
  outer loop
    vertex 0.5056299385038894 4.197660960182184 12.0
    vertex 0.8153212482682414 3.4499999999999993 5.0
    vertex 0.8153212482682414 3.4499999999999993 12.0
  endloop
endfacet
facet normal -0.9238795325112868 -0.3826834323650901 -0.0
  outer loop
    vertex 0.8153212482682414 3.4499999999999993 5.0
    vertex 0.5056299385038894 4.197660960182184 12.0
    vertex 0.5056299385038894 4.197660960182184 5.0
  endloop
endfacet
facet normal -0.7933533402912349 -0.6087614290087209 -0.0
  outer loop
    vertex 0.8153212482682414 3.4499999999999993 12.0
    vertex 1.3079689783217034 2.807968978321703 5.0
    vertex 1.3079689783217034 2.807968978321703 12.0
  endloop
endfacet
facet normal -0.7933533402912349 -0.6087614290087209 -0.0
  outer loop
    vertex 1.3079689783217034 2.807968978321703 5.0
    vertex 0.8153212482682414 3.4499999999999993 12.0
    vertex 0.8153212482682414 3.4499999999999993 5.0
  endloop
endfacet
facet normal -0.6087614290087203 -0.7933533402912355 -0.0
  outer loop
    vertex 1.950000000000001 2.3153212482682406 12.0
    vertex 1.3079689783217034 2.807968978321703 5.0
    vertex 1.950000000000001 2.3153212482682406 5.0
  endloop
endfacet
facet normal -0.6087614290087203 -0.7933533402912355 -0.0
  outer loop
    vertex 1.3079689783217034 2.807968978321703 5.0
    vertex 1.950000000000001 2.3153212482682406 12.0
    vertex 1.3079689783217034 2.807968978321703 12.0
  endloop
endfacet
facet normal -0.38268343236508984 -0.9238795325112868 -0.0
  outer loop
    vertex 2.697660960182186 2.005629938503889 12.0
    vertex 1.950000000000001 2.3153212482682406 5.0
    vertex 2.697660960182186 2.005629938503889 5.0
  endloop
endfacet
facet normal -0.38268343236508984 -0.9238795325112868 -0.0
  outer loop
    vertex 1.950000000000001 2.3153212482682406 5.0
    vertex 2.697660960182186 2.005629938503889 12.0
    vertex 1.950000000000001 2.3153212482682406 12.0
  endloop
endfacet
facet normal -0.1305261922200517 -0.9914448613738104 -0.0
  outer loop
    vertex 3.5 1.9000000000000008 12.0
    vertex 2.697660960182186 2.005629938503889 5.0
    vertex 3.5 1.9000000000000008 5.0
  endloop
endfacet
facet normal -0.1305261922200517 -0.9914448613738104 -0.0
  outer loop
    vertex 2.697660960182186 2.005629938503889 5.0
    vertex 3.5 1.9000000000000008 12.0
    vertex 2.697660960182186 2.005629938503889 12.0
  endloop
endfacet
facet normal 0.13052619222005205 -0.9914448613738104 0.0
  outer loop
    vertex 4.302339039817815 2.0056299385038896 12.0
    vertex 3.5 1.9000000000000008 5.0
    vertex 4.302339039817815 2.0056299385038896 5.0
  endloop
endfacet
facet normal 0.13052619222005205 -0.9914448613738104 0.0
  outer loop
    vertex 3.5 1.9000000000000008 5.0
    vertex 4.302339039817815 2.0056299385038896 12.0
    vertex 3.5 1.9000000000000008 12.0
  endloop
endfacet
facet normal 0.38268343236508967 -0.9238795325112868 0.0
  outer loop
    vertex 5.05 2.315321248268241 12.0
    vertex 4.302339039817815 2.0056299385038896 5.0
    vertex 5.05 2.315321248268241 5.0
  endloop
endfacet
facet normal 0.38268343236508967 -0.9238795325112868 0.0
  outer loop
    vertex 4.302339039817815 2.0056299385038896 5.0
    vertex 5.05 2.315321248268241 12.0
    vertex 4.302339039817815 2.0056299385038896 12.0
  endloop
endfacet
facet normal 0.6087614290087203 -0.7933533402912355 0.0
  outer loop
    vertex 5.692031021678297 2.807968978321703 12.0
    vertex 5.05 2.315321248268241 5.0
    vertex 5.692031021678297 2.807968978321703 5.0
  endloop
endfacet
facet normal 0.6087614290087203 -0.7933533402912355 0.0
  outer loop
    vertex 5.05 2.315321248268241 5.0
    vertex 5.692031021678297 2.807968978321703 12.0
    vertex 5.05 2.315321248268241 12.0
  endloop
endfacet
facet normal 0.7933533402912355 -0.6087614290087203 0.0
  outer loop
    vertex 6.184678751731759 3.4500000000000006 5.0
    vertex 5.692031021678297 2.807968978321703 12.0
    vertex 5.692031021678297 2.807968978321703 5.0
  endloop
endfacet
facet normal 0.7933533402912355 -0.6087614290087203 0.0
  outer loop
    vertex 5.692031021678297 2.807968978321703 12.0
    vertex 6.184678751731759 3.4500000000000006 5.0
    vertex 6.184678751731759 3.4500000000000006 12.0
  endloop
endfacet
facet normal 0.9238795325112871 -0.3826834323650889 0.0
  outer loop
    vertex 6.49437006149611 4.197660960182186 5.0
    vertex 6.184678751731759 3.4500000000000006 12.0
    vertex 6.184678751731759 3.4500000000000006 5.0
  endloop
endfacet
facet normal 0.9238795325112871 -0.3826834323650889 0.0
  outer loop
    vertex 6.184678751731759 3.4500000000000006 12.0
    vertex 6.49437006149611 4.197660960182186 5.0
    vertex 6.49437006149611 4.197660960182186 12.0
  endloop
endfacet
facet normal 0.9914448613738104 -0.13052619222005216 0.0
  outer loop
    vertex 6.599999999999999 5.0 5.0
    vertex 6.49437006149611 4.197660960182186 12.0
    vertex 6.49437006149611 4.197660960182186 5.0
  endloop
endfacet
facet normal 0.9914448613738104 -0.13052619222005216 0.0
  outer loop
    vertex 6.49437006149611 4.197660960182186 12.0
    vertex 6.599999999999999 5.0 5.0
    vertex 6.599999999999999 5.0 12.0
  endloop
endfacet
facet normal 0.9914448613738104 0.13052619222005168 0.0
  outer loop
    vertex 6.49437006149611 5.8023390398178165 5.0
    vertex 6.599999999999999 5.0 12.0
    vertex 6.599999999999999 5.0 5.0
  endloop
endfacet
facet normal 0.9914448613738104 0.13052619222005168 0.0
  outer loop
    vertex 6.599999999999999 5.0 12.0
    vertex 6.49437006149611 5.8023390398178165 5.0
    vertex 6.49437006149611 5.8023390398178165 12.0
  endloop
endfacet
facet normal 0.9238795325112863 0.382683432365091 0.0
  outer loop
    vertex 6.1846787517317585 6.550000000000001 5.0
    vertex 6.49437006149611 5.8023390398178165 12.0
    vertex 6.49437006149611 5.8023390398178165 5.0
  endloop
endfacet
facet normal 0.9238795325112863 0.382683432365091 0.0
  outer loop
    vertex 6.49437006149611 5.8023390398178165 12.0
    vertex 6.1846787517317585 6.550000000000001 5.0
    vertex 6.1846787517317585 6.550000000000001 12.0
  endloop
endfacet
facet normal 0.793353340291235 0.608761429008721 0.0
  outer loop
    vertex 5.692031021678296 7.192031021678297 5.0
    vertex 6.1846787517317585 6.550000000000001 12.0
    vertex 6.1846787517317585 6.550000000000001 5.0
  endloop
endfacet
facet normal 0.793353340291235 0.608761429008721 0.0
  outer loop
    vertex 6.1846787517317585 6.550000000000001 12.0
    vertex 5.692031021678296 7.192031021678297 5.0
    vertex 5.692031021678296 7.192031021678297 12.0
  endloop
endfacet
facet normal 0.6087614290087198 0.793353340291236 0.0
  outer loop
    vertex 5.049999999999997 7.684678751731759 12.0
    vertex 5.692031021678296 7.192031021678297 5.0
    vertex 5.049999999999997 7.684678751731759 5.0
  endloop
endfacet
facet normal 0.6087614290087198 0.793353340291236 0.0
  outer loop
    vertex 5.692031021678296 7.192031021678297 5.0
    vertex 5.049999999999997 7.684678751731759 12.0
    vertex 5.692031021678296 7.192031021678297 12.0
  endloop
endfacet
facet normal 0.3826834323650907 0.9238795325112864 0.0
  outer loop
    vertex 4.302339039817812 7.994370061496112 12.0
    vertex 5.049999999999997 7.684678751731759 5.0
    vertex 4.302339039817812 7.994370061496112 5.0
  endloop
endfacet
facet normal 0.3826834323650907 0.9238795325112864 0.0
  outer loop
    vertex 5.049999999999997 7.684678751731759 5.0
    vertex 4.302339039817812 7.994370061496112 12.0
    vertex 5.049999999999997 7.684678751731759 12.0
  endloop
endfacet
facet normal 0.13052619222005057 0.9914448613738106 0.0
  outer loop
    vertex 3.499999999999999 8.1 12.0
    vertex 4.302339039817812 7.994370061496112 5.0
    vertex 3.499999999999999 8.1 5.0
  endloop
endfacet
facet normal 0.13052619222005057 0.9914448613738106 0.0
  outer loop
    vertex 4.302339039817812 7.994370061496112 5.0
    vertex 3.499999999999999 8.1 12.0
    vertex 4.302339039817812 7.994370061496112 12.0
  endloop
endfacet
facet normal -0.13052619222005188 0.9914448613738105 0.0
  outer loop
    vertex 2.6976609601821835 7.99437006149611 12.0
    vertex 3.499999999999999 8.1 5.0
    vertex 2.6976609601821835 7.99437006149611 5.0
  endloop
endfacet
facet normal -0.13052619222005188 0.9914448613738105 0.0
  outer loop
    vertex 3.499999999999999 8.1 5.0
    vertex 2.6976609601821835 7.99437006149611 12.0
    vertex 3.499999999999999 8.1 12.0
  endloop
endfacet
facet normal -0.3826834323650907 0.9238795325112864 0.0
  outer loop
    vertex 1.9499999999999988 7.6846787517317585 12.0
    vertex 2.6976609601821835 7.99437006149611 5.0
    vertex 1.9499999999999988 7.6846787517317585 5.0
  endloop
endfacet
facet normal -0.3826834323650907 0.9238795325112864 0.0
  outer loop
    vertex 2.6976609601821835 7.99437006149611 5.0
    vertex 1.9499999999999988 7.6846787517317585 12.0
    vertex 2.6976609601821835 7.99437006149611 12.0
  endloop
endfacet
facet normal -0.6087614290087208 0.7933533402912352 0.0
  outer loop
    vertex 1.307968978321702 7.192031021678296 12.0
    vertex 1.9499999999999988 7.6846787517317585 5.0
    vertex 1.307968978321702 7.192031021678296 5.0
  endloop
endfacet
facet normal -0.6087614290087208 0.7933533402912352 0.0
  outer loop
    vertex 1.9499999999999988 7.6846787517317585 5.0
    vertex 1.307968978321702 7.192031021678296 12.0
    vertex 1.9499999999999988 7.6846787517317585 12.0
  endloop
endfacet
facet normal -0.7933533402912354 0.6087614290087204 0.0
  outer loop
    vertex 1.307968978321702 7.192031021678296 12.0
    vertex 0.8153212482682404 6.549999999999999 5.0
    vertex 0.8153212482682404 6.549999999999999 12.0
  endloop
endfacet
facet normal -0.7933533402912354 0.6087614290087204 0.0
  outer loop
    vertex 0.8153212482682404 6.549999999999999 5.0
    vertex 1.307968978321702 7.192031021678296 12.0
    vertex 1.307968978321702 7.192031021678296 5.0
  endloop
endfacet
facet normal -0.9238795325112871 0.3826834323650891 0.0
  outer loop
    vertex 0.8153212482682404 6.549999999999999 12.0
    vertex 0.5056299385038887 5.802339039817813 5.0
    vertex 0.5056299385038887 5.802339039817813 12.0
  endloop
endfacet
facet normal -0.9238795325112871 0.3826834323650891 0.0
  outer loop
    vertex 0.5056299385038887 5.802339039817813 5.0
    vertex 0.8153212482682404 6.549999999999999 12.0
    vertex 0.8153212482682404 6.549999999999999 5.0
  endloop
endfacet
facet normal -2.485065925841737e-31 -8.283553086139122e-32 1.0
  outer loop
    vertex 1.5681483474218623 4.482361909794957 11.0
    vertex 1.5681483474218623 5.517638090205041 11.0
    vertex 1.4999999999999987 4.999999999999998 11.0
  endloop
endfacet
facet normal -2.485065925841737e-31 -8.283553086139122e-32 1.0
  outer loop
    vertex 1.5681483474218623 5.517638090205041 11.0
    vertex 1.5681483474218623 4.482361909794957 11.0
    vertex 1.767949192431122 3.999999999999999 11.0
  endloop
endfacet
facet normal -2.485065925841737e-31 -8.283553086139122e-32 1.0
  outer loop
    vertex 1.5681483474218623 5.517638090205041 11.0
    vertex 1.767949192431122 3.999999999999999 11.0
    vertex 1.7679491924311208 5.999999999999999 11.0
  endloop
endfacet
facet normal -2.485065925841737e-31 -8.283553086139122e-32 1.0
  outer loop
    vertex 1.7679491924311208 5.999999999999999 11.0
    vertex 1.767949192431122 3.999999999999999 11.0
    vertex 2.085786437626903 6.414213562373094 11.0
  endloop
endfacet
facet normal -2.485065925841737e-31 -8.283553086139122e-32 1.0
  outer loop
    vertex 2.085786437626903 6.414213562373094 11.0
    vertex 1.767949192431122 3.999999999999999 11.0
    vertex 2.0857864376269046 3.5857864376269037 11.0
  endloop
endfacet
facet normal -2.485065925841737e-31 -8.283553086139122e-32 1.0
  outer loop
    vertex 2.085786437626903 6.414213562373094 11.0
    vertex 2.0857864376269046 3.5857864376269037 11.0
    vertex 2.499999999999998 6.732050807568876 11.0
  endloop
endfacet
facet normal -2.485065925841737e-31 -8.283553086139122e-32 1.0
  outer loop
    vertex 2.499999999999998 6.732050807568876 11.0
    vertex 2.0857864376269046 3.5857864376269037 11.0
    vertex 2.4999999999999996 3.267949192431121 11.0
  endloop
endfacet
facet normal -2.485065925841737e-31 -8.283553086139122e-32 1.0
  outer loop
    vertex 2.499999999999998 6.732050807568876 11.0
    vertex 2.4999999999999996 3.267949192431121 11.0
    vertex 2.9823619097949563 6.931851652578136 11.0
  endloop
endfacet
facet normal -2.485065925841737e-31 -8.283553086139122e-32 1.0
  outer loop
    vertex 2.9823619097949563 6.931851652578136 11.0
    vertex 2.4999999999999996 3.267949192431121 11.0
    vertex 2.982361909794958 3.0681483474218623 11.0
  endloop
endfacet
facet normal -2.485065925841737e-31 -8.283553086139122e-32 1.0
  outer loop
    vertex 2.9823619097949563 6.931851652578136 11.0
    vertex 2.982361909794958 3.0681483474218623 11.0
    vertex 3.499999999999997 7.0 11.0
  endloop
endfacet
facet normal -2.485065925841737e-31 -8.283553086139122e-32 1.0
  outer loop
    vertex 3.499999999999997 7.0 11.0
    vertex 2.982361909794958 3.0681483474218623 11.0
    vertex 3.5 2.9999999999999987 11.0
  endloop
endfacet
facet normal -2.485065925841737e-31 -8.283553086139122e-32 1.0
  outer loop
    vertex 3.499999999999997 7.0 11.0
    vertex 3.5 2.9999999999999987 11.0
    vertex 4.017638090205041 6.931851652578136 11.0
  endloop
endfacet
facet normal -2.485065925841737e-31 -8.283553086139122e-32 1.0
  outer loop
    vertex 4.017638090205041 6.931851652578136 11.0
    vertex 3.5 2.9999999999999987 11.0
    vertex 4.0176380902050415 3.0681483474218627 11.0
  endloop
endfacet
facet normal -2.485065925841737e-31 -8.283553086139122e-32 1.0
  outer loop
    vertex 4.017638090205041 6.931851652578136 11.0
    vertex 4.0176380902050415 3.0681483474218627 11.0
    vertex 4.499999999999999 6.732050807568878 11.0
  endloop
endfacet
facet normal -2.485065925841737e-31 -8.283553086139122e-32 1.0
  outer loop
    vertex 4.499999999999999 6.732050807568878 11.0
    vertex 4.0176380902050415 3.0681483474218627 11.0
    vertex 4.499999999999999 3.2679491924311215 11.0
  endloop
endfacet
facet normal -2.485065925841737e-31 -8.283553086139122e-32 1.0
  outer loop
    vertex 4.499999999999999 6.732050807568878 11.0
    vertex 4.499999999999999 3.2679491924311215 11.0
    vertex 4.914213562373093 6.414213562373097 11.0
  endloop
endfacet
facet normal -2.485065925841737e-31 -8.283553086139122e-32 1.0
  outer loop
    vertex 4.914213562373093 6.414213562373097 11.0
    vertex 4.499999999999999 3.2679491924311215 11.0
    vertex 4.914213562373095 3.585786437626904 11.0
  endloop
endfacet
facet normal -2.485065925841737e-31 -8.283553086139122e-32 1.0
  outer loop
    vertex 4.914213562373093 6.414213562373097 11.0
    vertex 4.914213562373095 3.585786437626904 11.0
    vertex 5.232050807568876 6.0 11.0
  endloop
endfacet
facet normal -2.485065925841737e-31 -8.283553086139122e-32 1.0
  outer loop
    vertex 5.232050807568876 6.0 11.0
    vertex 4.914213562373095 3.585786437626904 11.0
    vertex 5.232050807568877 3.9999999999999996 11.0
  endloop
endfacet
facet normal -2.485065925841737e-31 -8.283553086139122e-32 1.0
  outer loop
    vertex 5.232050807568876 6.0 11.0
    vertex 5.232050807568877 3.9999999999999996 11.0
    vertex 5.431851652578136 5.517638090205042 11.0
  endloop
endfacet
facet normal -2.485065925841737e-31 -8.283553086139122e-32 1.0
  outer loop
    vertex 5.431851652578136 5.517638090205042 11.0
    vertex 5.232050807568877 3.9999999999999996 11.0
    vertex 5.431851652578136 4.482361909794958 11.0
  endloop
endfacet
facet normal -2.485065925841737e-31 -8.283553086139122e-32 1.0
  outer loop
    vertex 5.431851652578136 5.517638090205042 11.0
    vertex 5.431851652578136 4.482361909794958 11.0
    vertex 5.5 5.000000000000002 11.0
  endloop
endfacet
facet normal 0.9238795325112871 -0.38268343236508895 1.9789036931081785e-31
  outer loop
    vertex 1.7679491924311208 5.999999999999999 11.0
    vertex 1.5681483474218623 5.517638090205041 12.0
    vertex 1.5681483474218623 5.517638090205041 11.0
  endloop
endfacet
facet normal 0.9238795325112871 -0.38268343236508895 1.9789036931081785e-31
  outer loop
    vertex 1.5681483474218623 5.517638090205041 12.0
    vertex 1.7679491924311208 5.999999999999999 11.0
    vertex 1.7679491924311208 5.999999999999999 12.0
  endloop
endfacet
facet normal 0.9914448613738104 -0.13052619222005163 2.355683778112301e-31
  outer loop
    vertex 1.5681483474218623 5.517638090205041 11.0
    vertex 1.4999999999999987 4.999999999999998 12.0
    vertex 1.4999999999999987 4.999999999999998 11.0
  endloop
endfacet
facet normal 0.9914448613738104 -0.13052619222005163 2.355683778112301e-31
  outer loop
    vertex 1.4999999999999987 4.999999999999998 12.0
    vertex 1.5681483474218623 5.517638090205041 11.0
    vertex 1.5681483474218623 5.517638090205041 12.0
  endloop
endfacet
facet normal 0.9914448613738104 0.13052619222005163 2.571927906589581e-31
  outer loop
    vertex 1.4999999999999987 4.999999999999998 11.0
    vertex 1.5681483474218623 4.482361909794957 12.0
    vertex 1.5681483474218623 4.482361909794957 11.0
  endloop
endfacet
facet normal 0.9914448613738104 0.13052619222005163 2.571927906589581e-31
  outer loop
    vertex 1.5681483474218623 4.482361909794957 12.0
    vertex 1.4999999999999987 4.999999999999998 11.0
    vertex 1.4999999999999987 4.999999999999998 12.0
  endloop
endfacet
facet normal 0.9238795325112862 0.3826834323650912 2.612899398544607e-31
  outer loop
    vertex 1.5681483474218623 4.482361909794957 11.0
    vertex 1.767949192431122 3.999999999999999 12.0
    vertex 1.767949192431122 3.999999999999999 11.0
  endloop
endfacet
facet normal 0.9238795325112862 0.3826834323650912 2.612899398544607e-31
  outer loop
    vertex 1.767949192431122 3.999999999999999 12.0
    vertex 1.5681483474218623 4.482361909794957 11.0
    vertex 1.5681483474218623 4.482361909794957 12.0
  endloop
endfacet
facet normal 0.793353340291235 0.6087614290087207 2.4758061145092376e-31
  outer loop
    vertex 1.767949192431122 3.999999999999999 11.0
    vertex 2.0857864376269046 3.5857864376269037 12.0
    vertex 2.0857864376269046 3.5857864376269037 11.0
  endloop
endfacet
facet normal 0.793353340291235 0.6087614290087207 2.4758061145092376e-31
  outer loop
    vertex 2.0857864376269046 3.5857864376269037 12.0
    vertex 1.767949192431122 3.999999999999999 11.0
    vertex 1.767949192431122 3.999999999999999 12.0
  endloop
endfacet
facet normal 0.608761429008721 0.7933533402912349 2.16999073523312e-31
  outer loop
    vertex 2.0857864376269046 3.5857864376269037 12.0
    vertex 2.4999999999999996 3.267949192431121 11.0
    vertex 2.0857864376269046 3.5857864376269037 11.0
  endloop
endfacet
facet normal 0.608761429008721 0.7933533402912349 2.16999073523312e-31
  outer loop
    vertex 2.4999999999999996 3.267949192431121 11.0
    vertex 2.0857864376269046 3.5857864376269037 12.0
    vertex 2.4999999999999996 3.267949192431121 12.0
  endloop
endfacet
facet normal 0.38268343236508895 0.9238795325112871 1.7162940734301078e-31
  outer loop
    vertex 2.4999999999999996 3.267949192431121 12.0
    vertex 2.982361909794958 3.0681483474218623 11.0
    vertex 2.4999999999999996 3.267949192431121 11.0
  endloop
endfacet
facet normal 0.38268343236508895 0.9238795325112871 1.7162940734301078e-31
  outer loop
    vertex 2.982361909794958 3.0681483474218623 11.0
    vertex 2.4999999999999996 3.267949192431121 12.0
    vertex 2.982361909794958 3.0681483474218623 12.0
  endloop
endfacet
facet normal 0.13052619222005163 0.9914448613738104 1.1456348068328994e-31
  outer loop
    vertex 2.982361909794958 3.0681483474218623 12.0
    vertex 3.5 2.9999999999999987 11.0
    vertex 2.982361909794958 3.0681483474218623 11.0
  endloop
endfacet
facet normal 0.13052619222005163 0.9914448613738104 1.1456348068328994e-31
  outer loop
    vertex 3.5 2.9999999999999987 11.0
    vertex 2.982361909794958 3.0681483474218623 12.0
    vertex 3.5 2.9999999999999987 12.0
  endloop
endfacet
facet normal -0.13052619222005246 0.9914448613738104 4.969024214010588e-32
  outer loop
    vertex 3.5 2.9999999999999987 12.0
    vertex 4.0176380902050415 3.0681483474218627 11.0
    vertex 3.5 2.9999999999999987 11.0
  endloop
endfacet
facet normal -0.13052619222005246 0.9914448613738104 4.969024214010588e-32
  outer loop
    vertex 4.0176380902050415 3.0681483474218627 11.0
    vertex 3.5 2.9999999999999987 12.0
    vertex 4.0176380902050415 3.0681483474218627 12.0
  endloop
endfacet
facet normal -0.38268343236508956 0.9238795325112868 -1.8569304287918117e-32
  outer loop
    vertex 4.0176380902050415 3.0681483474218627 12.0
    vertex 4.499999999999999 3.2679491924311215 11.0
    vertex 4.0176380902050415 3.0681483474218627 11.0
  endloop
endfacet
facet normal -0.38268343236508956 0.9238795325112868 -1.8569304287918117e-32
  outer loop
    vertex 4.499999999999999 3.2679491924311215 11.0
    vertex 4.0176380902050415 3.0681483474218627 12.0
    vertex 4.499999999999999 3.2679491924311215 12.0
  endloop
endfacet
facet normal -0.6087614290087207 0.793353340291235 -8.55633833159471e-32
  outer loop
    vertex 4.499999999999999 3.2679491924311215 12.0
    vertex 4.914213562373095 3.585786437626904 11.0
    vertex 4.499999999999999 3.2679491924311215 11.0
  endloop
endfacet
facet normal -0.6087614290087207 0.793353340291235 -8.55633833159471e-32
  outer loop
    vertex 4.914213562373095 3.585786437626904 11.0
    vertex 4.499999999999999 3.2679491924311215 12.0
    vertex 4.914213562373095 3.585786437626904 12.0
  endloop
endfacet
facet normal -0.7933533402912359 0.6087614290087199 -1.4672645917117102e-31
  outer loop
    vertex 5.232050807568877 3.9999999999999996 12.0
    vertex 4.914213562373095 3.585786437626904 11.0
    vertex 4.914213562373095 3.585786437626904 12.0
  endloop
endfacet
facet normal -0.7933533402912359 0.6087614290087199 -1.4672645917117102e-31
  outer loop
    vertex 4.914213562373095 3.585786437626904 11.0
    vertex 5.232050807568877 3.9999999999999996 12.0
    vertex 5.232050807568877 3.9999999999999996 11.0
  endloop
endfacet
facet normal -0.9238795325112867 0.3826834323650902 -1.9789036931081767e-31
  outer loop
    vertex 5.431851652578136 4.482361909794958 12.0
    vertex 5.232050807568877 3.9999999999999996 11.0
    vertex 5.232050807568877 3.9999999999999996 12.0
  endloop
endfacet
facet normal -0.9238795325112867 0.3826834323650902 -1.9789036931081767e-31
  outer loop
    vertex 5.232050807568877 3.9999999999999996 11.0
    vertex 5.431851652578136 4.482361909794958 12.0
    vertex 5.431851652578136 4.482361909794958 11.0
  endloop
endfacet
facet normal -0.9914448613738106 0.1305261922200513 -2.3556837781123015e-31
  outer loop
    vertex 5.5 5.000000000000002 12.0
    vertex 5.431851652578136 4.482361909794958 11.0
    vertex 5.431851652578136 4.482361909794958 12.0
  endloop
endfacet
facet normal -0.9914448613738106 0.1305261922200513 -2.3556837781123015e-31
  outer loop
    vertex 5.431851652578136 4.482361909794958 11.0
    vertex 5.5 5.000000000000002 12.0
    vertex 5.5 5.000000000000002 11.0
  endloop
endfacet
facet normal -0.9914448613738105 -0.130526192220052 -2.5719279065895813e-31
  outer loop
    vertex 5.431851652578136 5.517638090205042 12.0
    vertex 5.5 5.000000000000002 11.0
    vertex 5.5 5.000000000000002 12.0
  endloop
endfacet
facet normal -0.9914448613738105 -0.130526192220052 -2.5719279065895813e-31
  outer loop
    vertex 5.5 5.000000000000002 11.0
    vertex 5.431851652578136 5.517638090205042 12.0
    vertex 5.431851652578136 5.517638090205042 11.0
  endloop
endfacet
facet normal -0.9238795325112863 -0.3826834323650914 -2.612899398544607e-31
  outer loop
    vertex 5.232050807568876 6.0 12.0
    vertex 5.431851652578136 5.517638090205042 11.0
    vertex 5.431851652578136 5.517638090205042 12.0
  endloop
endfacet
facet normal -0.9238795325112863 -0.3826834323650914 -2.612899398544607e-31
  outer loop
    vertex 5.431851652578136 5.517638090205042 11.0
    vertex 5.232050807568876 6.0 12.0
    vertex 5.232050807568876 6.0 11.0
  endloop
endfacet
facet normal -0.7933533402912358 -0.6087614290087201 -2.475806114509239e-31
  outer loop
    vertex 4.914213562373093 6.414213562373097 12.0
    vertex 5.232050807568876 6.0 11.0
    vertex 5.232050807568876 6.0 12.0
  endloop
endfacet
facet normal -0.7933533402912358 -0.6087614290087201 -2.475806114509239e-31
  outer loop
    vertex 5.232050807568876 6.0 11.0
    vertex 4.914213562373093 6.414213562373097 12.0
    vertex 4.914213562373093 6.414213562373097 11.0
  endloop
endfacet
facet normal -0.6087614290087197 -0.7933533402912359 -2.1699907352331174e-31
  outer loop
    vertex 4.914213562373093 6.414213562373097 12.0
    vertex 4.499999999999999 6.732050807568878 11.0
    vertex 4.914213562373093 6.414213562373097 11.0
  endloop
endfacet
facet normal -0.6087614290087197 -0.7933533402912359 -2.1699907352331174e-31
  outer loop
    vertex 4.499999999999999 6.732050807568878 11.0
    vertex 4.914213562373093 6.414213562373097 12.0
    vertex 4.499999999999999 6.732050807568878 12.0
  endloop
endfacet
facet normal -0.38268343236508895 -0.9238795325112871 -1.7162940734301078e-31
  outer loop
    vertex 4.499999999999999 6.732050807568878 12.0
    vertex 4.017638090205041 6.931851652578136 11.0
    vertex 4.499999999999999 6.732050807568878 11.0
  endloop
endfacet
facet normal -0.38268343236508895 -0.9238795325112871 -1.7162940734301078e-31
  outer loop
    vertex 4.017638090205041 6.931851652578136 11.0
    vertex 4.499999999999999 6.732050807568878 12.0
    vertex 4.017638090205041 6.931851652578136 12.0
  endloop
endfacet
facet normal -0.1305261922200513 -0.9914448613738106 -1.1456348068328986e-31
  outer loop
    vertex 4.017638090205041 6.931851652578136 12.0
    vertex 3.499999999999997 7.0 11.0
    vertex 4.017638090205041 6.931851652578136 11.0
  endloop
endfacet
facet normal -0.1305261922200513 -0.9914448613738106 -1.1456348068328986e-31
  outer loop
    vertex 3.499999999999997 7.0 11.0
    vertex 4.017638090205041 6.931851652578136 12.0
    vertex 3.499999999999997 7.0 12.0
  endloop
endfacet
facet normal 0.13052619222005188 -0.9914448613738104 -4.969024214010604e-32
  outer loop
    vertex 3.499999999999997 7.0 12.0
    vertex 2.9823619097949563 6.931851652578136 11.0
    vertex 3.499999999999997 7.0 11.0
  endloop
endfacet
facet normal 0.13052619222005188 -0.9914448613738104 -4.969024214010604e-32
  outer loop
    vertex 2.9823619097949563 6.931851652578136 11.0
    vertex 3.499999999999997 7.0 12.0
    vertex 2.9823619097949563 6.931851652578136 12.0
  endloop
endfacet
facet normal 0.3826834323650914 -0.9238795325112863 1.8569304287918604e-32
  outer loop
    vertex 2.9823619097949563 6.931851652578136 12.0
    vertex 2.499999999999998 6.732050807568876 11.0
    vertex 2.9823619097949563 6.931851652578136 11.0
  endloop
endfacet
facet normal 0.3826834323650914 -0.9238795325112863 1.8569304287918604e-32
  outer loop
    vertex 2.499999999999998 6.732050807568876 11.0
    vertex 2.9823619097949563 6.931851652578136 12.0
    vertex 2.499999999999998 6.732050807568876 12.0
  endloop
endfacet
facet normal 0.608761429008721 -0.7933533402912349 8.556338331594721e-32
  outer loop
    vertex 2.499999999999998 6.732050807568876 12.0
    vertex 2.085786437626903 6.414213562373094 11.0
    vertex 2.499999999999998 6.732050807568876 11.0
  endloop
endfacet
facet normal 0.608761429008721 -0.7933533402912349 8.556338331594721e-32
  outer loop
    vertex 2.085786437626903 6.414213562373094 11.0
    vertex 2.499999999999998 6.732050807568876 12.0
    vertex 2.085786437626903 6.414213562373094 12.0
  endloop
endfacet
facet normal 0.7933533402912354 -0.6087614290087205 1.4672645917117087e-31
  outer loop
    vertex 2.085786437626903 6.414213562373094 11.0
    vertex 1.7679491924311208 5.999999999999999 12.0
    vertex 1.7679491924311208 5.999999999999999 11.0
  endloop
endfacet
facet normal 0.7933533402912354 -0.6087614290087205 1.4672645917117087e-31
  outer loop
    vertex 1.7679491924311208 5.999999999999999 12.0
    vertex 2.085786437626903 6.414213562373094 11.0
    vertex 2.085786437626903 6.414213562373094 12.0
  endloop
endfacet
endsolid StepUpHousing_pushbutton
